<svg width="500" height="82" viewBox="0 0 500 82" fill="none" xmlns="http://www.w3.org/2000/svg">
<mask id="path-1-outside-1_18_248" maskUnits="userSpaceOnUse" x="0" y="-0.683838" width="500" height="82" fill="black">
<rect fill="red" y="-0.683838" width="500" height="82"/>
<path d="M32.3161 61.7753C25.1288 61.7753 19.1736 61.0935 14.4505 59.7297C9.79588 58.366 6.37336 56.4719 4.18295 54.0475C2.06098 51.6735 1 48.9208 1 45.7893C1 43.1628 1.5476 40.2838 2.64281 37.1522L13.3211 34.5005L14.2452 34.9551C13.9029 36.3188 13.6291 37.5311 13.4238 38.5917C13.2869 39.6524 13.2184 40.6121 13.2184 41.4707C13.2184 43.8447 13.8345 45.8145 15.0666 47.3803C16.2987 48.9461 18.4891 50.1583 21.6378 51.0169C24.7865 51.8756 29.1674 52.3049 34.7803 52.3049C38.6135 52.3049 42.2414 52.0524 45.6639 51.5473C49.0864 51.0927 52.0298 50.4866 54.494 49.729C56.9582 48.9713 58.8406 48.1884 60.1412 47.3803C60.2781 46.9762 60.3465 46.7237 60.3465 46.6227C60.3465 46.0166 59.7989 45.4609 58.7037 44.9559C57.677 44.4508 55.7604 43.8194 52.9539 43.0618C49.9421 42.3041 47.5805 41.597 45.8693 40.9404C44.158 40.2838 42.7548 39.3746 41.6596 38.2129C40.5644 37.0512 40.0168 35.5107 40.0168 33.5914C40.0168 31.0154 40.9408 28.2374 42.789 25.2574C44.6372 22.2269 47.2725 19.6762 50.695 17.6053C54.1176 15.4839 58.0877 14.4232 62.6054 14.4232C64.6589 14.4232 66.6782 14.6 68.6633 14.9536C70.6483 15.3071 72.3254 15.7365 73.6944 16.2415L71.2302 25.3332L70.7168 25.5604C69.3478 25.1059 67.7734 24.727 65.9937 24.424C64.2824 24.0704 62.6739 23.8936 61.1679 23.8936C59.1144 23.8936 57.1636 24.2472 55.3154 24.9543C53.5357 25.6109 52.0983 26.4443 51.0031 27.4545C49.9078 28.4647 49.3602 29.4496 49.3602 30.4093C49.3602 31.0659 49.7367 31.6468 50.4897 32.1519C51.3111 32.6064 52.4747 33.061 53.9807 33.5156C55.4866 33.9702 57.7797 34.6015 60.8599 35.4097C64.0771 36.2683 66.5413 37.1017 68.2526 37.9099C69.9638 38.718 71.1275 39.5262 71.7435 40.3343C72.3596 41.1424 72.6676 42.0769 72.6676 43.1375C72.6676 46.5721 70.8537 49.7037 67.2258 52.5322C63.6664 55.4112 58.7722 57.6589 52.5432 59.2751C46.3827 60.9419 39.6403 61.7753 32.3161 61.7753ZM48.2308 72.6095L41.6596 79.8828L31.7 74.6551L26.9769 79.8828L16.504 74.4278L22.9726 67.3061L33.1375 72.458L37.7579 67.3061L48.2308 72.6095Z"/>
<path d="M117.775 40.4101C119.281 40.4101 120.342 40.6879 120.958 41.2435C121.643 41.7991 121.985 42.5314 121.985 43.4406C121.985 45.4104 121.437 46.9762 120.342 48.1379C119.315 49.2996 117.57 49.8805 115.106 49.8805C111.957 49.8805 109.185 49.5017 106.789 48.744C105.488 51.219 103.366 53.4666 100.423 55.487C97.4796 57.5578 93.9202 59.2751 89.7447 60.6389C85.5692 62.0531 80.9488 63.0886 75.8835 63.7452L69.0042 56.7749L69.7229 56.0173C74.8567 55.3607 79.3744 54.401 83.2761 53.1383C87.2462 51.9261 90.4976 50.5624 93.0303 49.0471C95.563 47.5318 97.4111 45.9408 98.5748 44.274C95.6314 39.4251 93.0987 35.4097 90.9768 32.2276L100.115 24.4998H101.347L105.762 33.7429C106.72 35.7127 107.679 37.1775 108.637 38.1372C109.595 39.0463 110.725 39.6524 112.025 39.9555C113.394 40.2585 115.311 40.4101 117.775 40.4101Z"/>
<path d="M206.91 40.4101C208.347 40.4101 209.374 40.6879 209.99 41.2435C210.674 41.7991 211.017 42.5314 211.017 43.4406C211.017 45.4104 210.469 46.9762 209.374 48.1379C208.347 49.2996 206.602 49.8805 204.137 49.8805C201.605 49.8805 198.935 49.6027 196.129 49.0471C193.391 48.4915 191.029 47.7339 189.044 46.7742C187.196 47.6833 185.108 48.3652 182.781 48.8198C180.522 49.2239 177.852 49.5017 174.772 49.6532C171.76 49.8047 167.859 49.8805 163.067 49.8805H152.081C146.126 49.8805 141.539 49.7542 138.322 49.5017C135.105 49.1986 131.922 48.542 128.773 47.5318C127.131 48.34 125.18 48.9461 122.921 49.3501C120.731 49.7037 118.129 49.8805 115.118 49.8805L117.89 40.4101C119.053 40.4101 120.286 40.3596 121.586 40.2585C122.887 40.107 123.879 39.9302 124.564 39.7282C125.317 38.3644 126.207 35.7885 127.233 32.0003L140.889 30.4851L141.3 30.7881C139.589 34.6773 138.083 37.6068 136.782 39.5767C137.877 39.8292 139.075 40.006 140.376 40.107C141.676 40.208 143.217 40.2838 144.996 40.3343C151.294 35.839 156.564 32.2781 160.808 29.6517C165.052 27.0252 168.885 25.0301 172.308 23.6664C175.799 22.2521 179.05 21.545 182.062 21.545C185.211 21.545 187.983 22.2269 190.379 23.5906C192.775 24.9038 194.589 26.5959 195.821 28.6667C197.121 30.6871 197.772 32.758 197.772 34.8793C197.772 36.3441 197.429 37.8341 196.745 39.3494C199.893 40.0565 203.282 40.4101 206.91 40.4101ZM167.893 40.4101C173.917 40.4101 178.195 40.3343 180.727 40.1828C183.26 40.0312 185.211 39.7534 186.58 39.3494C187.127 38.6928 187.401 37.7331 187.401 36.4704C187.401 35.5612 187.093 34.652 186.477 33.7429C185.93 32.7832 185.108 32.0003 184.013 31.3942C182.986 30.7881 181.823 30.4851 180.522 30.4851C178.126 30.4851 174.978 31.3437 171.076 33.061C167.243 34.7783 162.828 37.228 157.831 40.4101H167.893Z"/>
<path d="M243.173 25.6362C248.649 27.6566 252.859 29.0708 255.803 29.879C258.814 30.6366 261.552 31.0659 264.017 31.1669L260.731 40.2585C257.103 40.5616 252.928 41.1424 248.205 42.0011C243.55 42.8597 238.587 43.9457 233.317 45.2589C226.266 47.0267 220.619 48.2389 216.375 48.8956C212.131 49.5522 208.058 49.8805 204.157 49.8805L206.929 40.4101C211.241 40.4101 215.211 40.2333 218.839 39.8797C222.536 39.4756 227.498 38.6675 233.727 37.4553C236.055 36.9502 238.279 36.5209 240.401 36.1673C242.523 35.7632 243.858 35.5107 244.406 35.4097C243.447 35.1066 241.804 34.5258 239.477 33.6671C235.575 32.1013 232.324 31.0154 229.723 30.4093C227.19 29.8032 224.794 29.5001 222.536 29.5001C220.414 29.5001 218.429 29.6264 216.58 29.879C214.801 30.1315 212.85 30.4851 210.728 30.9396L210.215 30.5608L214.732 22.2269C215.964 21.7218 217.402 21.3177 219.045 21.0146C220.756 20.7116 222.433 20.5601 224.076 20.5601C226.335 20.5601 228.73 20.9136 231.263 21.6207C233.864 22.3279 237.834 23.6664 243.173 25.6362Z"/>
<path d="M395.027 21.545C398.175 21.545 400.913 22.2269 403.241 23.5906C405.637 24.9038 407.451 26.5959 408.683 28.6667C409.983 30.6871 410.633 32.758 410.633 34.8793C410.633 37.0512 409.949 39.1221 408.58 41.0919C407.279 43.0113 405.637 44.577 403.651 45.7893C401.735 46.951 399.579 47.8349 397.183 48.441C394.787 49.0471 391.981 49.4512 388.764 49.6532C385.546 49.8047 381.268 49.8805 375.929 49.8805H369.871C363.848 49.8805 359.467 49.8047 356.729 49.6532C354.059 49.4512 351.835 48.9713 350.055 48.2137C348.207 53.7192 344.442 57.7094 338.76 60.1843C333.148 62.7097 326.439 63.9725 318.636 63.9725C313.365 63.9725 308.848 63.3158 305.083 62.0026C301.387 60.6894 298.546 58.8458 296.561 56.4719C294.644 54.098 293.686 51.32 293.686 48.1379C293.686 46.5216 293.857 44.9306 294.199 43.3648C294.61 41.7485 295.089 40.2838 295.637 38.9706L304.878 36.3946L306.007 36.6977C305.528 39.1726 305.288 41.5465 305.288 43.8194C305.288 47.2035 306.486 49.83 308.882 51.6988C311.346 53.5676 315.453 54.502 321.203 54.502C325.447 54.502 329.075 53.997 332.087 52.9868C335.167 52.0271 337.426 50.7896 338.863 49.2744C339.069 48.5672 339.171 47.8601 339.171 47.153C339.171 45.2337 338.624 43.188 337.528 41.0162C336.502 38.7938 334.996 36.0915 333.011 32.9095L344.202 27.0757H344.818L346.256 30.3335C346.53 30.8386 347.009 31.8741 347.693 33.4398C348.378 34.9551 348.994 36.1421 349.541 37.0007C350.089 37.8089 350.671 38.4402 351.287 38.8948C351.971 39.3494 352.827 39.6777 353.854 39.8797C354.881 40.0817 356.284 40.2333 358.064 40.3343C364.224 35.8895 369.426 32.3539 373.67 29.7274C377.914 27.0505 381.782 25.0301 385.273 23.6664C388.764 22.2521 392.015 21.545 395.027 21.545ZM399.442 39.3494C399.989 38.6928 400.263 37.7331 400.263 36.4704C400.263 35.5612 399.955 34.652 399.339 33.7429C398.792 32.7832 397.97 32.0003 396.875 31.3942C395.848 30.7881 394.684 30.4851 393.384 30.4851C390.988 30.4851 387.839 31.3437 383.938 33.061C380.105 34.7783 375.724 37.228 370.795 40.4101H378.496C385.615 40.4101 390.543 40.3343 393.281 40.1828C396.019 40.0312 398.073 39.7534 399.442 39.3494ZM394.411 14.499L383.424 8.74097L390.304 1.31616L401.187 6.92265L394.411 14.499Z"/>
<path d="M451.271 40.4101C452.776 40.4101 453.837 40.6879 454.453 41.2435C455.138 41.7991 455.48 42.5314 455.48 43.4406C455.48 45.4104 454.933 46.9762 453.837 48.1379C452.811 49.2996 451.065 49.8805 448.601 49.8805C445.452 49.8805 442.68 49.5017 440.284 48.744C438.984 51.219 436.862 53.4666 433.918 55.487C430.975 57.5578 427.416 59.2751 423.24 60.6389C419.065 62.0531 414.444 63.0886 409.379 63.7452L402.5 56.7749L403.218 56.0173C408.352 55.3607 412.87 54.401 416.772 53.1383C420.742 51.9261 423.993 50.5624 426.526 49.0471C429.058 47.5318 430.907 45.9408 432.07 44.274C429.127 39.4251 426.594 35.4097 424.472 32.2276L433.61 24.4998H434.842L439.258 33.7429C440.216 35.7127 441.174 37.1775 442.132 38.1372C443.091 39.0463 444.22 39.6524 445.521 39.9555C446.89 40.2585 448.806 40.4101 451.271 40.4101Z"/>
<path d="M498 39.4251L494.201 47.9864C489.889 48.5925 484.173 49.0723 477.054 49.4259C469.935 49.729 460.455 49.8805 448.613 49.8805L451.385 40.4101H458.675C456.964 37.9856 456.108 35.5359 456.108 33.061C456.108 30.0305 457.032 27.404 458.881 25.1816C460.797 22.9592 463.364 21.2924 466.581 20.1812C469.867 19.0195 473.529 18.4387 477.568 18.4387C479.963 18.4387 482.462 18.6407 485.063 19.0448C487.664 19.4489 490.128 20.0045 492.456 20.7116L491.018 28.6667L490.607 28.894C486.432 27.9344 482.941 27.4545 480.134 27.4545C477.123 27.4545 474.761 28.0101 473.05 29.1213C471.407 30.182 470.586 31.7225 470.586 33.7429C470.586 34.7531 470.894 35.8138 471.51 36.9249C472.126 38.0361 472.981 39.1221 474.077 40.1828C482.975 39.9302 490.71 39.5009 497.281 38.8948L498 39.4251Z"/>
</mask>
<path d="M32.3161 61.7753C25.1288 61.7753 19.1736 61.0935 14.4505 59.7297C9.79588 58.366 6.37336 56.4719 4.18295 54.0475C2.06098 51.6735 1 48.9208 1 45.7893C1 43.1628 1.5476 40.2838 2.64281 37.1522L13.3211 34.5005L14.2452 34.9551C13.9029 36.3188 13.6291 37.5311 13.4238 38.5917C13.2869 39.6524 13.2184 40.6121 13.2184 41.4707C13.2184 43.8447 13.8345 45.8145 15.0666 47.3803C16.2987 48.9461 18.4891 50.1583 21.6378 51.0169C24.7865 51.8756 29.1674 52.3049 34.7803 52.3049C38.6135 52.3049 42.2414 52.0524 45.6639 51.5473C49.0864 51.0927 52.0298 50.4866 54.494 49.729C56.9582 48.9713 58.8406 48.1884 60.1412 47.3803C60.2781 46.9762 60.3465 46.7237 60.3465 46.6227C60.3465 46.0166 59.7989 45.4609 58.7037 44.9559C57.677 44.4508 55.7604 43.8194 52.9539 43.0618C49.9421 42.3041 47.5805 41.597 45.8693 40.9404C44.158 40.2838 42.7548 39.3746 41.6596 38.2129C40.5644 37.0512 40.0168 35.5107 40.0168 33.5914C40.0168 31.0154 40.9408 28.2374 42.789 25.2574C44.6372 22.2269 47.2725 19.6762 50.695 17.6053C54.1176 15.4839 58.0877 14.4232 62.6054 14.4232C64.6589 14.4232 66.6782 14.6 68.6633 14.9536C70.6483 15.3071 72.3254 15.7365 73.6944 16.2415L71.2302 25.3332L70.7168 25.5604C69.3478 25.1059 67.7734 24.727 65.9937 24.424C64.2824 24.0704 62.6739 23.8936 61.1679 23.8936C59.1144 23.8936 57.1636 24.2472 55.3154 24.9543C53.5357 25.6109 52.0983 26.4443 51.0031 27.4545C49.9078 28.4647 49.3602 29.4496 49.3602 30.4093C49.3602 31.0659 49.7367 31.6468 50.4897 32.1519C51.3111 32.6064 52.4747 33.061 53.9807 33.5156C55.4866 33.9702 57.7797 34.6015 60.8599 35.4097C64.0771 36.2683 66.5413 37.1017 68.2526 37.9099C69.9638 38.718 71.1275 39.5262 71.7435 40.3343C72.3596 41.1424 72.6676 42.0769 72.6676 43.1375C72.6676 46.5721 70.8537 49.7037 67.2258 52.5322C63.6664 55.4112 58.7722 57.6589 52.5432 59.2751C46.3827 60.9419 39.6403 61.7753 32.3161 61.7753ZM48.2308 72.6095L41.6596 79.8828L31.7 74.6551L26.9769 79.8828L16.504 74.4278L22.9726 67.3061L33.1375 72.458L37.7579 67.3061L48.2308 72.6095Z" stroke="white" stroke-width="2" mask="url(#path-1-outside-1_18_248)"/>
<path d="M117.775 40.4101C119.281 40.4101 120.342 40.6879 120.958 41.2435C121.643 41.7991 121.985 42.5314 121.985 43.4406C121.985 45.4104 121.437 46.9762 120.342 48.1379C119.315 49.2996 117.57 49.8805 115.106 49.8805C111.957 49.8805 109.185 49.5017 106.789 48.744C105.488 51.219 103.366 53.4666 100.423 55.487C97.4796 57.5578 93.9202 59.2751 89.7447 60.6389C85.5692 62.0531 80.9488 63.0886 75.8835 63.7452L69.0042 56.7749L69.7229 56.0173C74.8567 55.3607 79.3744 54.401 83.2761 53.1383C87.2462 51.9261 90.4976 50.5624 93.0303 49.0471C95.563 47.5318 97.4111 45.9408 98.5748 44.274C95.6314 39.4251 93.0987 35.4097 90.9768 32.2276L100.115 24.4998H101.347L105.762 33.7429C106.72 35.7127 107.679 37.1775 108.637 38.1372C109.595 39.0463 110.725 39.6524 112.025 39.9555C113.394 40.2585 115.311 40.4101 117.775 40.4101Z" stroke="white" stroke-width="2" mask="url(#path-1-outside-1_18_248)"/>
<path d="M206.91 40.4101C208.347 40.4101 209.374 40.6879 209.99 41.2435C210.674 41.7991 211.017 42.5314 211.017 43.4406C211.017 45.4104 210.469 46.9762 209.374 48.1379C208.347 49.2996 206.602 49.8805 204.137 49.8805C201.605 49.8805 198.935 49.6027 196.129 49.0471C193.391 48.4915 191.029 47.7339 189.044 46.7742C187.196 47.6833 185.108 48.3652 182.781 48.8198C180.522 49.2239 177.852 49.5017 174.772 49.6532C171.76 49.8047 167.859 49.8805 163.067 49.8805H152.081C146.126 49.8805 141.539 49.7542 138.322 49.5017C135.105 49.1986 131.922 48.542 128.773 47.5318C127.131 48.34 125.18 48.9461 122.921 49.3501C120.731 49.7037 118.129 49.8805 115.118 49.8805L117.89 40.4101C119.053 40.4101 120.286 40.3596 121.586 40.2585C122.887 40.107 123.879 39.9302 124.564 39.7282C125.317 38.3644 126.207 35.7885 127.233 32.0003L140.889 30.4851L141.3 30.7881C139.589 34.6773 138.083 37.6068 136.782 39.5767C137.877 39.8292 139.075 40.006 140.376 40.107C141.676 40.208 143.217 40.2838 144.996 40.3343C151.294 35.839 156.564 32.2781 160.808 29.6517C165.052 27.0252 168.885 25.0301 172.308 23.6664C175.799 22.2521 179.05 21.545 182.062 21.545C185.211 21.545 187.983 22.2269 190.379 23.5906C192.775 24.9038 194.589 26.5959 195.821 28.6667C197.121 30.6871 197.772 32.758 197.772 34.8793C197.772 36.3441 197.429 37.8341 196.745 39.3494C199.893 40.0565 203.282 40.4101 206.91 40.4101ZM167.893 40.4101C173.917 40.4101 178.195 40.3343 180.727 40.1828C183.26 40.0312 185.211 39.7534 186.58 39.3494C187.127 38.6928 187.401 37.7331 187.401 36.4704C187.401 35.5612 187.093 34.652 186.477 33.7429C185.93 32.7832 185.108 32.0003 184.013 31.3942C182.986 30.7881 181.823 30.4851 180.522 30.4851C178.126 30.4851 174.978 31.3437 171.076 33.061C167.243 34.7783 162.828 37.228 157.831 40.4101H167.893Z" stroke="white" stroke-width="2" mask="url(#path-1-outside-1_18_248)"/>
<path d="M243.173 25.6362C248.649 27.6566 252.859 29.0708 255.803 29.879C258.814 30.6366 261.552 31.0659 264.017 31.1669L260.731 40.2585C257.103 40.5616 252.928 41.1424 248.205 42.0011C243.55 42.8597 238.587 43.9457 233.317 45.2589C226.266 47.0267 220.619 48.2389 216.375 48.8956C212.131 49.5522 208.058 49.8805 204.157 49.8805L206.929 40.4101C211.241 40.4101 215.211 40.2333 218.839 39.8797C222.536 39.4756 227.498 38.6675 233.727 37.4553C236.055 36.9502 238.279 36.5209 240.401 36.1673C242.523 35.7632 243.858 35.5107 244.406 35.4097C243.447 35.1066 241.804 34.5258 239.477 33.6671C235.575 32.1013 232.324 31.0154 229.723 30.4093C227.19 29.8032 224.794 29.5001 222.536 29.5001C220.414 29.5001 218.429 29.6264 216.58 29.879C214.801 30.1315 212.85 30.4851 210.728 30.9396L210.215 30.5608L214.732 22.2269C215.964 21.7218 217.402 21.3177 219.045 21.0146C220.756 20.7116 222.433 20.5601 224.076 20.5601C226.335 20.5601 228.73 20.9136 231.263 21.6207C233.864 22.3279 237.834 23.6664 243.173 25.6362Z" stroke="white" stroke-width="2" mask="url(#path-1-outside-1_18_248)"/>
<path d="M395.027 21.545C398.175 21.545 400.913 22.2269 403.241 23.5906C405.637 24.9038 407.451 26.5959 408.683 28.6667C409.983 30.6871 410.633 32.758 410.633 34.8793C410.633 37.0512 409.949 39.1221 408.58 41.0919C407.279 43.0113 405.637 44.577 403.651 45.7893C401.735 46.951 399.579 47.8349 397.183 48.441C394.787 49.0471 391.981 49.4512 388.764 49.6532C385.546 49.8047 381.268 49.8805 375.929 49.8805H369.871C363.848 49.8805 359.467 49.8047 356.729 49.6532C354.059 49.4512 351.835 48.9713 350.055 48.2137C348.207 53.7192 344.442 57.7094 338.76 60.1843C333.148 62.7097 326.439 63.9725 318.636 63.9725C313.365 63.9725 308.848 63.3158 305.083 62.0026C301.387 60.6894 298.546 58.8458 296.561 56.4719C294.644 54.098 293.686 51.32 293.686 48.1379C293.686 46.5216 293.857 44.9306 294.199 43.3648C294.61 41.7485 295.089 40.2838 295.637 38.9706L304.878 36.3946L306.007 36.6977C305.528 39.1726 305.288 41.5465 305.288 43.8194C305.288 47.2035 306.486 49.83 308.882 51.6988C311.346 53.5676 315.453 54.502 321.203 54.502C325.447 54.502 329.075 53.997 332.087 52.9868C335.167 52.0271 337.426 50.7896 338.863 49.2744C339.069 48.5672 339.171 47.8601 339.171 47.153C339.171 45.2337 338.624 43.188 337.528 41.0162C336.502 38.7938 334.996 36.0915 333.011 32.9095L344.202 27.0757H344.818L346.256 30.3335C346.53 30.8386 347.009 31.8741 347.693 33.4398C348.378 34.9551 348.994 36.1421 349.541 37.0007C350.089 37.8089 350.671 38.4402 351.287 38.8948C351.971 39.3494 352.827 39.6777 353.854 39.8797C354.881 40.0817 356.284 40.2333 358.064 40.3343C364.224 35.8895 369.426 32.3539 373.67 29.7274C377.914 27.0505 381.782 25.0301 385.273 23.6664C388.764 22.2521 392.015 21.545 395.027 21.545ZM399.442 39.3494C399.989 38.6928 400.263 37.7331 400.263 36.4704C400.263 35.5612 399.955 34.652 399.339 33.7429C398.792 32.7832 397.97 32.0003 396.875 31.3942C395.848 30.7881 394.684 30.4851 393.384 30.4851C390.988 30.4851 387.839 31.3437 383.938 33.061C380.105 34.7783 375.724 37.228 370.795 40.4101H378.496C385.615 40.4101 390.543 40.3343 393.281 40.1828C396.019 40.0312 398.073 39.7534 399.442 39.3494ZM394.411 14.499L383.424 8.74097L390.304 1.31616L401.187 6.92265L394.411 14.499Z" stroke="white" stroke-width="2" mask="url(#path-1-outside-1_18_248)"/>
<path d="M451.271 40.4101C452.776 40.4101 453.837 40.6879 454.453 41.2435C455.138 41.7991 455.48 42.5314 455.48 43.4406C455.48 45.4104 454.933 46.9762 453.837 48.1379C452.811 49.2996 451.065 49.8805 448.601 49.8805C445.452 49.8805 442.68 49.5017 440.284 48.744C438.984 51.219 436.862 53.4666 433.918 55.487C430.975 57.5578 427.416 59.2751 423.24 60.6389C419.065 62.0531 414.444 63.0886 409.379 63.7452L402.5 56.7749L403.218 56.0173C408.352 55.3607 412.87 54.401 416.772 53.1383C420.742 51.9261 423.993 50.5624 426.526 49.0471C429.058 47.5318 430.907 45.9408 432.07 44.274C429.127 39.4251 426.594 35.4097 424.472 32.2276L433.61 24.4998H434.842L439.258 33.7429C440.216 35.7127 441.174 37.1775 442.132 38.1372C443.091 39.0463 444.22 39.6524 445.521 39.9555C446.89 40.2585 448.806 40.4101 451.271 40.4101Z" stroke="white" stroke-width="2" mask="url(#path-1-outside-1_18_248)"/>
<path d="M498 39.4251L494.201 47.9864C489.889 48.5925 484.173 49.0723 477.054 49.4259C469.935 49.729 460.455 49.8805 448.613 49.8805L451.385 40.4101H458.675C456.964 37.9856 456.108 35.5359 456.108 33.061C456.108 30.0305 457.032 27.404 458.881 25.1816C460.797 22.9592 463.364 21.2924 466.581 20.1812C469.867 19.0195 473.529 18.4387 477.568 18.4387C479.963 18.4387 482.462 18.6407 485.063 19.0448C487.664 19.4489 490.128 20.0045 492.456 20.7116L491.018 28.6667L490.607 28.894C486.432 27.9344 482.941 27.4545 480.134 27.4545C477.123 27.4545 474.761 28.0101 473.05 29.1213C471.407 30.182 470.586 31.7225 470.586 33.7429C470.586 34.7531 470.894 35.8138 471.51 36.9249C472.126 38.0361 472.981 39.1221 474.077 40.1828C482.975 39.9302 490.71 39.5009 497.281 38.8948L498 39.4251Z" stroke="white" stroke-width="2" mask="url(#path-1-outside-1_18_248)"/>
</svg>
