<svg width="24" height="24" viewBox="0 0 24 24" fill="none" xmlns="http://www.w3.org/2000/svg">
<g id="ifacebook">
<g id="Group 330">
<path id="Vector" d="M19 21H5C3.8955 21 3 20.1045 3 19V5C3 3.8955 3.8955 3 5 3H19C20.1045 3 21 3.8955 21 5V19C21 20.1045 20.1045 21 19 21Z" fill="url(#paint0_linear_925_6668)"/>
<path id="Vector_2" d="M13.3535 13.6505H15.9415L16.348 11.0215H13.3535V9.58446C13.3535 8.49246 13.7105 7.52396 14.732 7.52396H16.3735V5.22996C16.085 5.19096 15.475 5.10596 14.3225 5.10596C11.9155 5.10596 10.5045 6.37696 10.5045 9.27296V11.022H8.03003V13.651H10.504V21C11 21 11.4905 21 12 21C12.4605 21 12.75 21 13.3535 21V13.6505Z" fill="white"/>
</g>
</g>
<defs>
<linearGradient id="paint0_linear_925_6668" x1="5.69685" y1="5.69685" x2="19.4767" y2="19.4767" gradientUnits="userSpaceOnUse">
<stop stop-color="#2AA4F4"/>
<stop offset="1" stop-color="#007AD9"/>
</linearGradient>
</defs>
</svg>
