<svg width="24" height="24" viewBox="0 0 24 24" fill="none" xmlns="http://www.w3.org/2000/svg">
<g id="iinstagram">
<g id="Group 331">
<path id="Vector" d="M12.005 15.5049C10.0755 15.5049 8.505 13.9349 8.505 12.0049C8.505 10.0749 10.0755 8.50488 12.005 8.50488C13.9345 8.50488 15.505 10.0749 15.505 12.0049C15.505 13.9349 13.9345 15.5049 12.005 15.5049ZM12.005 9.50488C10.6265 9.50488 9.505 10.6264 9.505 12.0049C9.505 13.3834 10.6265 14.5049 12.005 14.5049C13.3835 14.5049 14.505 13.3834 14.505 12.0049C14.505 10.6264 13.3835 9.50488 12.005 9.50488Z" fill="#FFDE59"/>
<path id="Vector_2" d="M15.755 9.00488C16.1692 9.00488 16.505 8.6691 16.505 8.25488C16.505 7.84067 16.1692 7.50488 15.755 7.50488C15.3408 7.50488 15.005 7.84067 15.005 8.25488C15.005 8.6691 15.3408 9.00488 15.755 9.00488Z" fill="#FFDE59"/>
<path id="Vector_3" d="M15.005 18.5049H9.005C7.0755 18.5049 5.505 16.9349 5.505 15.0049V9.00488C5.505 7.07488 7.0755 5.50488 9.005 5.50488H15.005C16.9345 5.50488 18.505 7.07488 18.505 9.00488V15.0049C18.505 16.9349 16.9345 18.5049 15.005 18.5049ZM9.005 6.50488C7.6265 6.50488 6.505 7.62638 6.505 9.00488V15.0049C6.505 16.3834 7.6265 17.5049 9.005 17.5049H15.005C16.3835 17.5049 17.505 16.3834 17.505 15.0049V9.00488C17.505 7.62638 16.3835 6.50488 15.005 6.50488H9.005Z" fill="#FFDE59"/>
</g>
</g>
</svg>
