<svg width="24" height="24" viewBox="0 0 24 24" fill="none" xmlns="http://www.w3.org/2000/svg">
<g id="iinstagram">
<g id="Group 331">
<path id="Vector" d="M17.0135 21L7.0135 21.0095C4.8135 21.0115 3.012 19.2135 3.0095 17.0135L3 7.0135C2.998 4.8135 4.796 3.012 6.996 3.0095L16.996 3C19.196 2.998 20.9975 4.796 21 6.996L21.0095 16.996C21.012 19.1965 19.2135 20.998 17.0135 21Z" fill="url(#paint0_radial_925_6662)"/>
<path id="Vector_2" d="M17.0061 20.9905L7.01138 21C4.81254 21.002 3.012 19.2049 3.0095 17.0061L3 7.01138C2.998 4.81254 4.79505 3.012 6.99389 3.0095L16.9886 3C19.1875 2.998 20.988 4.79505 20.9905 6.99389L21 16.9886C21.0025 19.188 19.2049 20.9885 17.0061 20.9905Z" fill="url(#paint1_radial_925_6662)"/>
<path id="Vector_3" d="M12.005 15.5049C10.0755 15.5049 8.505 13.9349 8.505 12.0049C8.505 10.0749 10.0755 8.50488 12.005 8.50488C13.9345 8.50488 15.505 10.0749 15.505 12.0049C15.505 13.9349 13.9345 15.5049 12.005 15.5049ZM12.005 9.50488C10.6265 9.50488 9.505 10.6264 9.505 12.0049C9.505 13.3834 10.6265 14.5049 12.005 14.5049C13.3835 14.5049 14.505 13.3834 14.505 12.0049C14.505 10.6264 13.3835 9.50488 12.005 9.50488Z" fill="white"/>
<path id="Vector_4" d="M15.755 9.00488C16.1692 9.00488 16.505 8.6691 16.505 8.25488C16.505 7.84067 16.1692 7.50488 15.755 7.50488C15.3408 7.50488 15.005 7.84067 15.005 8.25488C15.005 8.6691 15.3408 9.00488 15.755 9.00488Z" fill="white"/>
<path id="Vector_5" d="M15.005 18.5049H9.005C7.0755 18.5049 5.505 16.9349 5.505 15.0049V9.00488C5.505 7.07488 7.0755 5.50488 9.005 5.50488H15.005C16.9345 5.50488 18.505 7.07488 18.505 9.00488V15.0049C18.505 16.9349 16.9345 18.5049 15.005 18.5049ZM9.005 6.50488C7.6265 6.50488 6.505 7.62638 6.505 9.00488V15.0049C6.505 16.3834 7.6265 17.5049 9.005 17.5049H15.005C16.3835 17.5049 17.505 16.3834 17.505 15.0049V9.00488C17.505 7.62638 16.3835 6.50488 15.005 6.50488H9.005Z" fill="white"/>
</g>
</g>
<defs>
<radialGradient id="paint0_radial_925_6662" cx="0" cy="0" r="1" gradientUnits="userSpaceOnUse" gradientTransform="translate(9.695 21.0225) scale(22.4495)">
<stop stop-color="#FFDD55"/>
<stop offset="0.328" stop-color="#FF543F"/>
<stop offset="0.348" stop-color="#FC5245"/>
<stop offset="0.504" stop-color="#E64771"/>
<stop offset="0.643" stop-color="#D53E91"/>
<stop offset="0.761" stop-color="#CC39A4"/>
<stop offset="0.841" stop-color="#C837AB"/>
</radialGradient>
<radialGradient id="paint1_radial_925_6662" cx="0" cy="0" r="1" gradientUnits="userSpaceOnUse" gradientTransform="translate(5.89647 2.77527) scale(14.8986 9.92696)">
<stop stop-color="#4168C9"/>
<stop offset="0.999" stop-color="#4168C9" stop-opacity="0"/>
</radialGradient>
</defs>
</svg>
