<svg xmlns="http://www.w3.org/2000/svg" width="121" height="38" viewBox="0 0 121 38" fill="none">
  <path d="M13.1216 37.7231H3L0.533508 32.2204H11.8015C12.2647 32.2204 12.6353 32.0589 12.9132 31.7359C13.1911 31.4359 13.33 31.0668 13.33 30.6284V13.255L19.0273 11.1785V23.4299H20.8685V29.1056H19.0273V30.6284C19.0273 32.6588 18.3094 34.3546 16.8735 35.7159C15.8313 36.8002 14.5807 37.4693 13.1216 37.7231Z" fill="#FFDE59"/>
  <path d="M51.0525 35.8796C49.8771 37.0506 47.9749 37.0467 46.8043 35.8709C45.6342 34.6957 45.6381 32.7945 46.813 31.6241L48.9241 29.5209L51.0438 31.6155C52.2302 32.7879 52.2341 34.7024 51.0525 35.8796ZM53.336 29.1056H20.0084V23.4299H53.336C54.1929 23.4299 54.8877 23.153 55.4203 22.5993C55.9762 22.0455 56.2541 21.1803 56.2541 20.0036C56.2541 18.9885 55.9762 18.204 55.4203 17.6503C54.8877 17.0965 54.1929 16.8197 53.336 16.8197H41.073L44.9985 11.1439H53.336C55.5825 11.1439 57.5626 11.9399 59.2764 13.5319C61.0134 15.1239 61.8819 17.2811 61.8819 20.0036C61.8819 22.8877 61.0134 25.1257 59.2764 26.7177C57.5626 28.3097 55.5825 29.1056 53.336 29.1056Z" fill="#FFDE59"/>
  <path d="M76.7979 29.1056H73.3934C71.4017 29.1056 69.6995 28.4135 68.2867 27.0291C66.874 25.6217 66.1676 23.9144 66.1676 21.9071V2.11111L71.7954 0L71.8649 21.9071C71.8649 22.3224 72.0039 22.6685 72.2818 22.9454C72.5828 23.2684 72.9534 23.4299 73.3934 23.4299H76.7979V29.1056Z" fill="#FFDE59"/>
  <path d="M75.9191 29.1056V23.4991H87.3385C87.7785 23.4991 88.1491 23.3376 88.4501 23.0146C88.7512 22.7146 88.9017 22.3455 88.9017 21.9071V13.255L94.5295 11.1093V21.9071C94.5295 22.6223 94.4948 23.153 94.4253 23.4991H100.108V29.1056H75.9191Z" fill="#FFDE59"/>
  <path d="M112.454 23.4299C113.334 23.4299 114.029 23.1415 114.539 22.5647C115.071 21.9648 115.338 21.1573 115.338 20.1421C115.338 19.2192 115.071 18.4693 114.539 17.8925C114.029 17.2927 113.334 16.9927 112.454 16.9927H107.278V23.4299H112.454ZM112.454 29.1056C111.064 29.0843 109.798 28.3004 109.159 27.0652L107.278 23.4299V29.1056H97.427V23.4299H101.616V16.3169C101.616 13.5555 103.854 11.3169 106.616 11.3169H112.454C113.983 11.3169 115.384 11.6861 116.658 12.4244C117.955 13.1627 118.997 14.1894 119.784 15.5046C120.595 16.8197 121 18.3655 121 20.1421C121 22.0109 120.595 23.6145 119.784 24.9526C118.997 26.2678 117.955 27.2945 116.658 28.0328C115.384 28.748 113.983 29.1056 112.454 29.1056Z" fill="#FFDE59"/>
  <path d="M77.889 13.2124C76.7142 14.3829 76.7103 16.2841 77.8804 17.4593C79.051 18.635 80.9531 18.6389 82.1285 17.468C83.3102 16.2908 83.3063 14.3762 82.1198 13.2038L80.0001 11.1093L77.889 13.2124Z" fill="#FFDE59"/>
  <path d="M77.889 4.73337C76.7141 5.90381 76.7103 7.80499 77.8804 8.98022L80.0001 11.1093L82.1285 8.98894C83.3102 7.81172 83.3063 5.89713 82.1198 4.72474C80.9464 3.56533 79.0576 3.56918 77.889 4.73337Z" fill="#FFDE59"/>
</svg>